<?xml version="1.0" encoding="UTF-8" standalone="no"?>
<svg
   xmlns:dc="http://purl.org/dc/elements/1.1/"
   xmlns:cc="http://creativecommons.org/ns#"
   xmlns:rdf="http://www.w3.org/1999/02/22-rdf-syntax-ns#"
   xmlns:svg="http://www.w3.org/2000/svg"
   xmlns="http://www.w3.org/2000/svg"
   xmlns:xlink="http://www.w3.org/1999/xlink"
   xmlns:sodipodi="http://sodipodi.sourceforge.net/DTD/sodipodi-0.dtd"
   xmlns:inkscape="http://www.inkscape.org/namespaces/inkscape"
   inkscape:export-ydpi="161.74139"
   inkscape:export-xdpi="161.74139"
   inkscape:export-filename="C:\Users\John\Dropbox\research\bci\error_codes\blog\imgs\asymmetry.png"
   sodipodi:docname="asymmetry.svg"
   inkscape:version="1.0beta2 (847b694, 2019-12-17)"
   width="210mm"
   height="297mm"
   viewBox="0 0 210 297"
   version="1.1"
   id="svg10515">
  <sodipodi:namedview
     inkscape:snap-global="false"
     inkscape:document-rotation="0"
     inkscape:guide-bbox="true"
     showguides="true"
     id="base"
     pagecolor="#ffffff"
     bordercolor="#666666"
     borderopacity="1.0"
     inkscape:pageopacity="0.0"
     inkscape:pageshadow="2"
     inkscape:zoom="0.35"
     inkscape:cx="1222.1192"
     inkscape:cy="1277.543"
     inkscape:document-units="mm"
     inkscape:current-layer="layer1"
     showgrid="false"
     inkscape:window-width="2560"
     inkscape:window-height="1377"
     inkscape:window-x="1912"
     inkscape:window-y="-8"
     inkscape:window-maximized="1">
    <sodipodi:guide
       inkscape:locked="false"
       id="guide12113"
       orientation="0.0063693641,-0.99997972"
       position="-42.711309,239.9256" />
  </sodipodi:namedview>
  <defs
     id="defs10509">
    <linearGradient
       id="linearGradient12069"
       inkscape:collect="always">
      <stop
         id="stop12065"
         offset="0"
         style="stop-color:#cd424f;stop-opacity:0" />
      <stop
         style="stop-color:#cd424f;stop-opacity:0.70196078;"
         offset="0.38951957"
         id="stop12077" />
      <stop
         style="stop-color:#cd424f;stop-opacity:1"
         offset="0.50427812"
         id="stop12075" />
      <stop
         id="stop12079"
         offset="0.62606269"
         style="stop-color:#cd424f;stop-opacity:0.58039216;" />
      <stop
         id="stop12067"
         offset="1"
         style="stop-color:#cd424f;stop-opacity:0;" />
    </linearGradient>
    <marker
       inkscape:stockid="Arrow2Mend"
       orient="auto"
       refY="0.0"
       refX="0.0"
       id="Arrow2Mend"
       style="overflow:visible;"
       inkscape:isstock="true">
      <path
         id="path11315"
         style="fill-rule:evenodd;stroke-width:0.625;stroke-linejoin:round;stroke:#cd424f;stroke-opacity:1;fill:#cd424f;fill-opacity:1"
         d="M 8.7185878,4.0337352 L -2.2072895,0.016013256 L 8.7185884,-4.0017078 C 6.9730900,-1.6296469 6.9831476,1.6157441 8.7185878,4.0337352 z "
         transform="scale(0.6) rotate(180) translate(0,0)" />
    </marker>
    <marker
       inkscape:stockid="Arrow1Lend"
       orient="auto"
       refY="0.0"
       refX="0.0"
       id="marker11608"
       style="overflow:visible;"
       inkscape:isstock="true">
      <path
         id="path11606"
         d="M 0.0,0.0 L 5.0,-5.0 L -12.5,0.0 L 5.0,5.0 L 0.0,0.0 z "
         style="fill-rule:evenodd;stroke:#000000;stroke-width:1pt;stroke-opacity:1;fill:#000000;fill-opacity:1"
         transform="scale(0.8) rotate(180) translate(12.5,0)" />
    </marker>
    <marker
       inkscape:stockid="Arrow1Lend"
       orient="auto"
       refY="0.0"
       refX="0.0"
       id="marker11572"
       style="overflow:visible;"
       inkscape:isstock="true">
      <path
         id="path11570"
         d="M 0.0,0.0 L 5.0,-5.0 L -12.5,0.0 L 5.0,5.0 L 0.0,0.0 z "
         style="fill-rule:evenodd;stroke:#000000;stroke-width:1pt;stroke-opacity:1;fill:#000000;fill-opacity:1"
         transform="scale(0.8) rotate(180) translate(12.5,0)" />
    </marker>
    <marker
       inkscape:stockid="Arrow1Lend"
       orient="auto"
       refY="0.0"
       refX="0.0"
       id="Arrow1Lend"
       style="overflow:visible;"
       inkscape:isstock="true">
      <path
         id="path11291"
         d="M 0.0,0.0 L 5.0,-5.0 L -12.5,0.0 L 5.0,5.0 L 0.0,0.0 z "
         style="fill-rule:evenodd;stroke:#000000;stroke-width:1pt;stroke-opacity:1;fill:#000000;fill-opacity:1"
         transform="scale(0.8) rotate(180) translate(12.5,0)" />
    </marker>
    <linearGradient
       gradientUnits="userSpaceOnUse"
       y2="156.64822"
       x2="187.60187"
       y1="156.64822"
       x1="106.90709"
       id="linearGradient12073"
       xlink:href="#linearGradient12069"
       inkscape:collect="always" />
  </defs>
  <metadata
     id="metadata10512">
    <rdf:RDF>
      <cc:Work
         rdf:about="">
        <dc:format>image/svg+xml</dc:format>
        <dc:type
           rdf:resource="http://purl.org/dc/dcmitype/StillImage" />
        <dc:title></dc:title>
      </cc:Work>
    </rdf:RDF>
  </metadata>
  <g
     inkscape:label="Layer 1"
     inkscape:groupmode="layer"
     id="layer1">
    <text
       xml:space="preserve"
       style="font-style:normal;font-variant:normal;font-weight:normal;font-stretch:normal;font-size:10.5833px;line-height:6.61458px;font-family:monospace;-inkscape-font-specification:monospace;letter-spacing:0px;word-spacing:0px;fill:#000000;fill-opacity:1;stroke:none;stroke-width:0.264583px;stroke-linecap:butt;stroke-linejoin:miter;stroke-opacity:1"
       x="38.175594"
       y="52.449402"
       id="text11280" />
    <path
       sodipodi:nodetypes="ccccc"
       inkscape:connector-curvature="0"
       id="path948"
       d="m 147.45612,151.6201 c -0.37797,-15.30804 -28.25391,-34.82332 -64.068029,-35.09059 l -84.724439,-1.06908 -83.279292,-1.44244 c -20.57975,-1.87089 -38.43309,8.5624 -38.43309,8.5624"
       style="fill:none;stroke:#cd424f;stroke-width:10;stroke-linecap:butt;stroke-linejoin:miter;stroke-miterlimit:4;stroke-dasharray:none;stroke-opacity:0.984314" />
    <path
       sodipodi:nodetypes="cccccccc"
       inkscape:connector-curvature="0"
       id="path950"
       d="m -123.04873,122.58039 c 0,0 -13.31148,5.29613 -12.77694,20.79776 l -0.59123,46.38182 c 0,0 1.50969,19.90077 10.32958,28.18613 15.50163,13.09621 16.51333,20.63022 63.55277,23.30292 24.856066,0.53454 128.65339,0.24155 128.65339,0.24155 45.43582,-0.80181 77.70097,-10.54074 77.51198,-20.36812 0.37798,-14.93006 0.33018,-60.52032 0.33018,-60.52032"
       style="fill:none;stroke:#cd414f;stroke-width:1;stroke-linecap:butt;stroke-linejoin:miter;stroke-miterlimit:4;stroke-dasharray:none;stroke-opacity:0.443137" />
    <circle
       r="8.3154764"
       cy="122.0863"
       cx="-122.2753"
       id="path946"
       style="fill:#de8787;fill-opacity:0.988235;stroke:#c83737;stroke-width:1;stroke-linecap:round;stroke-opacity:0.988235" />
    <path
       inkscape:connector-curvature="0"
       style="opacity:1;fill:url(#linearGradient12073);fill-opacity:1;fill-rule:nonzero;stroke:#cd424f;stroke-width:1.61495018;stroke-linecap:butt;stroke-linejoin:bevel;stroke-miterlimit:4;stroke-dasharray:none;stroke-dashoffset:0;stroke-opacity:1;paint-order:normal"
       d="m 106.96726,161.4345 c 0.92614,-0.0692 1.85228,-0.15026 2.77842,-0.24626 0.92615,-0.096 1.8523,-0.20702 2.77844,-0.33585 0.92614,-0.12882 1.85229,-0.2756 2.77843,-0.44252 0.92614,-0.16692 1.85228,-0.35416 2.77843,-0.56277 0.92615,-0.20862 1.85229,-0.43877 2.77843,-0.68986 0.92614,-0.25109 1.85229,-0.52325 2.77843,-0.8137 0.92614,-0.29045 1.85228,-0.59931 2.77843,-0.92132 0.92615,-0.32202 1.85229,-0.65725 2.77843,-0.99804 0.92614,-0.3408 1.85229,-0.68714 2.77843,-1.02936 0.92614,-0.34224 1.85229,-0.68025 2.77843,-1.00322 0.92615,-0.32296 1.85229,-0.63068 2.77843,-0.91226 0.92614,-0.28158 1.85229,-0.53676 2.77843,-0.75589 0.92614,-0.21911 1.85229,-0.40188 2.77843,-0.54109 0.92615,-0.13922 1.85229,-0.23458 2.77843,-0.28235 0.92614,-0.0478 1.85229,-0.0477 2.77843,0 0.92615,0.0477 1.85229,0.14322 2.77843,0.28235 0.92614,0.13912 1.85229,0.32205 2.77843,0.54109 0.92614,0.21906 1.85228,0.47436 2.77843,0.75589 0.92615,0.28153 1.85229,0.58933 2.77843,0.91226 0.92614,0.32293 1.85229,0.66099 2.77843,1.00322 0.92614,0.34221 1.85229,0.68855 2.77843,1.02936 0.92615,0.3408 1.85229,0.676 2.77843,0.99804 0.92614,0.32204 1.85229,0.63083 2.77843,0.92132 0.92614,0.29049 1.85229,0.56257 2.77843,0.8137 0.92615,0.25113 1.85229,0.4812 2.77843,0.68986 0.92614,0.20866 1.85229,0.39581 2.77843,0.56277 0.92615,0.16696 1.85229,0.31366 2.77843,0.44252 0.92615,0.12886 1.85229,0.23982 2.77843,0.33585 0.92614,0.096 1.85229,0.17709 2.77843,0.24626"
       title="t exp(-t*t*3)"
       id="path11997" />
    <path
       inkscape:connector-curvature="0"
       d="m 18.154091,106.90773 -13.8883271,7.49169 -3.92989639,1.94657 0.16076458,0.0867 -0.16076458,0.0867 3.93129919,1.94741 13.8869243,7.49085 0.03844,-0.5934 1.191847,0.59031 -0.615002,-9.52186 0.615002,-9.52159 -1.191847,0.59031 z"
       style="fill:#cd424f;fill-opacity:0.984314;stroke:none;stroke-width:0.14365px;stroke-linecap:butt;stroke-linejoin:miter;stroke-opacity:1"
       id="path952" />
    <path
       id="path965"
       style="fill:#cd424f;fill-opacity:0.984314;stroke:none;stroke-width:0.14365px;stroke-linecap:butt;stroke-linejoin:miter;stroke-opacity:1"
       d="m -85.899268,103.97236 -13.453173,8.24762 -3.816339,2.16074 0.16532,0.0776 -0.15574,0.0954 4.032899,1.72722 14.279601,6.71212 0.0056,-0.59463 1.222643,0.52356 -1.140175,-9.47333 0.08797,-9.54103 -1.15741,0.65527 z"
       inkscape:connector-curvature="0" />
    <path
       inkscape:connector-curvature="0"
       d="m 136.3358,122.88301 -15.6044,-2.34816 -4.31142,-0.80303 0.0765,0.16586 -0.18061,-0.0272 1.97445,3.91778 6.60721,14.32845 0.38701,-0.45147 0.59865,1.18769 5.22546,-7.98365 6.20892,-7.24488 -1.30754,-0.24357 z"
       style="fill:#cd424f;fill-opacity:0.984314;stroke:none;stroke-width:0.14365px;stroke-linecap:butt;stroke-linejoin:miter;stroke-opacity:1"
       id="path967" />
    <path
       id="path969"
       style="fill:#ebb2b9;fill-opacity:1;stroke:none;stroke-width:0.0367592px;stroke-linecap:butt;stroke-linejoin:miter;stroke-opacity:1"
       d="m 0.17822049,244.16918 3.55394231,-1.91708 1.0056377,-0.49811 -0.041139,-0.0222 0.041139,-0.0222 -1.0059967,-0.49833 -3.55358331,-1.91686 -0.009837,0.15185 -0.30498673,-0.15106 0.15737544,2.43659 -0.15737544,2.43652 0.30498673,-0.15106 z"
       inkscape:connector-curvature="0" />
    <path
       inkscape:connector-curvature="0"
       d="m 128.44112,235.37282 2.73637,-2.96952 0.78872,-0.79832 -0.0461,-0.008 0.0316,-0.0344 -1.11342,-0.14373 -3.98401,-0.65574 0.04,0.14684 -0.33755,-0.0436 0.94194,2.25266 0.64431,2.35506 0.23921,-0.24212 z"
       style="fill:#ebb2b9;fill-opacity:1;stroke:none;stroke-width:0.0367592px;stroke-linecap:butt;stroke-linejoin:miter;stroke-opacity:1"
       id="path971" />
    <path
       id="path973"
       style="fill:#ebb2b9;fill-opacity:1;stroke:none;stroke-width:0.0367592px;stroke-linecap:butt;stroke-linejoin:miter;stroke-opacity:1"
       d="m -119.07643,227.46957 3.96175,0.78121 1.09281,0.25528 -0.0173,-0.0435 0.0458,0.009 -0.45931,-1.0244 -1.52286,-3.73942 -0.10429,0.11084 -0.13922,-0.31058 -1.42838,1.98028 -1.6712,1.78003 0.33146,0.0774 z"
       inkscape:connector-curvature="0" />
    <text
       id="text977"
       y="137.9613"
       x="-6.0476217"
       style="font-style:normal;font-weight:normal;font-size:10.5833px;line-height:1.25;font-family:sans-serif;letter-spacing:0px;word-spacing:0px;fill:#cd424f;fill-opacity:1;stroke:none;stroke-width:0.264583;"
       xml:space="preserve"><tspan
         style="font-style:normal;font-variant:normal;font-weight:normal;font-stretch:normal;font-family:'Cambria Math';-inkscape-font-specification:'Cambria Math';stroke-width:0.264583;fill:#cd424f;fill-opacity:1;"
         y="137.9613"
         x="-6.0476217"
         id="tspan975"
         sodipodi:role="line">Feedback</tspan></text>
    <text
       xml:space="preserve"
       style="font-style:normal;font-weight:normal;font-size:10.5833px;line-height:1.25;font-family:sans-serif;letter-spacing:0px;word-spacing:0px;fill:#cd3f4f;fill-opacity:0.44313726;stroke:none;stroke-width:0.264583;"
       x="-26.836311"
       y="236.99107"
       id="text981"><tspan
         sodipodi:role="line"
         id="tspan979"
         x="-26.836311"
         y="236.99107"
         style="font-style:normal;font-variant:normal;font-weight:normal;font-stretch:normal;font-family:'Cambria Math';-inkscape-font-specification:'Cambria Math';stroke-width:0.264583;fill:#cd3f4f;fill-opacity:0.44313726;">Feedforward</tspan></text>
    <g
       id="g11190"
       transform="matrix(-0.26458333,0,0,0.26458333,-38.648203,66.529018)">
      <g
         id="g11134">
        <path
           id="path11132"
           d="m 264.892,0 c -31.1,0 -61,6.7 -88.9,19.9 -35.4,16.5 -65.4,42.5 -86.8,75.3 -21.9,33.7 -33.5,72.8 -33.5,113.2 v 29 l -38.1,72.8 c -7,13.4 -7.3,27.2 -0.9,37.8 6.4,10.6 18.8,16.7 33.9,16.7 h 5.1 v 58.5 c 0,30 24.4,54.4 54.4,54.4 0.7,0 1.5,-0.1 2.2,-0.2 l 170.5,-28.4 c 27,-3.7 47.2,-27 47.1,-54.2 v -99.7 c 40.1,-6.5 70.9,-41.4 70.9,-83.4 0,-46.6 -37.9,-84.5 -84.5,-84.5 -46.6,0 -84.5,37.9 -84.5,84.5 0,42.1 30.9,77 71.2,83.5 V 395 c 0.1,13.8 -10.2,25.6 -23.8,27.4 -0.2,0 -0.3,0 -0.5,0.1 l -169.6,28 c -14.6,-0.5 -26.4,-12.6 -26.4,-27.4 v -72 c 0,-7.5 -6,-13.5 -13.5,-13.5 h -18.7 c -5.3,0 -9.4,-1.4 -10.8,-3.7 -1.4,-2.3 -0.7,-6.6 1.7,-11.3 l 39.7,-75.7 c 1,-1.9 1.5,-4.1 1.5,-6.3 v -32.3 c 0,-70.1 41.1,-134.5 104.7,-164 h 0.1 c 24.3,-11.5 50.3,-17.3 77.4,-17.3 99.9,0 181.1,81.3 181.1,181.1 0,50.6 -21.4,99.2 -58.7,133.5 -2.8,2.6 -4.4,6.2 -4.4,9.9 v 62.2 57.8 c 0,7.5 6,13.5 13.5,13.5 7.5,0 13.5,-6 13.5,-13.5 v -57.8 -56.3 c 19,-18.4 34.1,-39.9 44.9,-64.1 12.1,-26.9 18.2,-55.5 18.2,-85.2 C 472.992,93.4 379.592,0 264.892,0 Z m -6.199,211.6 c 0,-31.7 25.8,-57.5 57.5,-57.5 31.7,0 57.5,25.8 57.5,57.5 0,31.7 -25.8,57.5 -57.5,57.5 -31.7,0 -57.5,-25.8 -57.5,-57.5 z"
           inkscape:connector-curvature="0" />
      </g>
      <g
         id="g11136" />
      <g
         id="g11138" />
      <g
         id="g11140" />
      <g
         id="g11142" />
      <g
         id="g11144" />
      <g
         id="g11146" />
      <g
         id="g11148" />
      <g
         id="g11150" />
      <g
         id="g11152" />
      <g
         id="g11154" />
      <g
         id="g11156" />
      <g
         id="g11158" />
      <g
         id="g11160" />
      <g
         id="g11162" />
      <g
         id="g11164" />
    </g>
    <g
       id="g11268"
       transform="matrix(0.26458333,0,0,0.26458333,75.897484,90.171429)">
      <g
         id="g11206">
        <g
           id="g11204">
          <g
             id="g11202">
            <path
               id="path11192"
               d="M 401.067,477.867 H 280.03 c -2.577,-7.228 -8.269,-12.919 -15.497,-15.497 v -10.103 c 0,-4.71 -3.823,-8.533 -8.533,-8.533 -4.71,0 -8.533,3.823 -8.533,8.533 v 10.103 c -7.228,2.577 -12.919,8.269 -15.497,15.497 H 110.933 c -4.71,0 -8.533,3.823 -8.533,8.533 0,4.71 3.823,8.533 8.533,8.533 H 231.978 C 235.511,504.849 244.89,512 256,512 c 11.11,0 20.489,-7.151 24.03,-17.067 h 121.037 c 4.71,0 8.533,-3.823 8.533,-8.533 0,-4.71 -3.823,-8.533 -8.533,-8.533 z M 256,494.933 c -4.702,0 -8.533,-3.831 -8.533,-8.533 0,-4.702 3.831,-8.533 8.533,-8.533 4.702,0 8.533,3.831 8.533,8.533 0,4.702 -3.831,8.533 -8.533,8.533 z"
               inkscape:connector-curvature="0" />
            <path
               id="path11194"
               d="m 213.333,358.4 c -4.71,0 -8.533,3.823 -8.533,8.533 V 409.6 h -42.667 c -4.71,0 -8.533,3.823 -8.533,8.533 0,4.71 3.823,8.533 8.533,8.533 h 187.733 c 4.71,0 8.533,-3.823 8.533,-8.533 0,-4.71 -3.823,-8.533 -8.533,-8.533 H 307.2 v -42.667 c 0,-4.71 -3.823,-8.533 -8.533,-8.533 -4.71,0 -8.533,3.823 -8.533,8.533 V 409.6 h -68.267 v -42.667 c 0,-4.71 -3.823,-8.533 -8.534,-8.533 z"
               inkscape:connector-curvature="0" />
            <path
               id="path11196"
               d="m 247.467,341.333 h 17.067 c 4.71,0 8.533,-3.823 8.533,-8.533 0,-4.71 -3.823,-8.533 -8.533,-8.533 h -17.067 c -4.71,0 -8.533,3.823 -8.533,8.533 -0.001,4.71 3.822,8.533 8.533,8.533 z"
               inkscape:connector-curvature="0" />
            <path
               id="path11198"
               d="m 460.8,298.667 v -256 c 0,-4.71 -3.823,-8.533 -8.533,-8.533 H 59.733 c -4.71,0 -8.533,3.823 -8.533,8.533 v 256 c 0,4.71 3.823,8.533 8.533,8.533 h 392.533 c 4.711,0 8.534,-3.823 8.534,-8.533 z m -17.067,-8.534 H 68.267 V 51.2 h 375.467 v 238.933 z"
               inkscape:connector-curvature="0" />
            <path
               id="path11200"
               d="M 452.267,0 H 59.733 C 37.803,0 17.067,20.736 17.067,42.667 v 256 c 0,23.927 18.739,42.667 42.667,42.667 h 153.6 c 4.71,0 8.533,-3.823 8.533,-8.533 0,-4.71 -3.823,-8.533 -8.533,-8.533 h -153.6 c -14.353,0 -25.6,-11.247 -25.6,-25.6 v -256 c 0,-12.442 13.158,-25.6 25.6,-25.6 h 392.533 c 12.442,0 25.6,13.158 25.6,25.6 v 256 c 0,12.442 -13.158,25.6 -25.6,25.6 h -153.6 c -4.71,0 -8.533,3.823 -8.533,8.533 0,4.71 3.823,8.533 8.533,8.533 h 153.6 c 21.931,0 42.667,-20.736 42.667,-42.667 v -256 C 494.933,20.736 474.197,0 452.267,0 Z"
               inkscape:connector-curvature="0" />
          </g>
        </g>
      </g>
      <g
         id="g11208" />
      <g
         id="g11210" />
      <g
         id="g11212" />
      <g
         id="g11214" />
      <g
         id="g11216" />
      <g
         id="g11218" />
      <g
         id="g11220" />
      <g
         id="g11222" />
      <g
         id="g11224" />
      <g
         id="g11226" />
      <g
         id="g11228" />
      <g
         id="g11230" />
      <g
         id="g11232" />
      <g
         id="g11234" />
      <g
         id="g11236" />
    </g>
    <rect
       y="108.11052"
       x="84.960678"
       height="16.437077"
       width="4.4558034"
       id="rect983"
       style="fill:#ffffff;fill-opacity:1;stroke:none;stroke-width:0.924636;stroke-linecap:round;stroke-miterlimit:4;stroke-dasharray:none;stroke-opacity:0.443137" />
  </g>
</svg>
