<?xml version="1.0" encoding="utf-8" standalone="no"?>
<!DOCTYPE svg PUBLIC "-//W3C//DTD SVG 1.1//EN"
  "http://www.w3.org/Graphics/SVG/1.1/DTD/svg11.dtd">
<!-- Created with matplotlib (http://matplotlib.org/) -->
<svg height="396pt" version="1.1" viewBox="0 0 576 396" width="576pt" xmlns="http://www.w3.org/2000/svg" xmlns:xlink="http://www.w3.org/1999/xlink">
 <defs>
  <style type="text/css">
*{stroke-linecap:butt;stroke-linejoin:round;}
  </style>
 </defs>
 <g id="figure_1">
  <g id="patch_1">
   <path d="M 0 396 
L 576 396 
L 576 0 
L 0 0 
z
" style="fill:#ffffff;"/>
  </g>
  <g id="axes_1">
   <g id="patch_2">
    <path d="M 72 346.5 
L 518.4 346.5 
L 518.4 47.52 
L 72 47.52 
z
" style="fill:#eaeaf2;"/>
   </g>
   <g id="matplotlib.axis_1">
    <g id="xtick_1">
     <g id="line2d_1">
      <path clip-path="url(#p25b620ae2f)" d="M 74.054756 346.5 
L 74.054756 47.52 
" style="fill:none;stroke:#ffffff;stroke-linecap:round;"/>
     </g>
     <g id="line2d_2"/>
     <g id="text_1">
      <!-- $\mathdefault{10^{0}}$ -->
      <defs>
       <path d="M 37.25 0 
L 28.46875 0 
L 28.46875 56 
Q 25.296875 52.984375 20.140625 49.953125 
Q 14.984375 46.921875 10.890625 45.40625 
L 10.890625 53.90625 
Q 18.265625 57.375 23.78125 62.296875 
Q 29.296875 67.234375 31.59375 71.875 
L 37.25 71.875 
z
" id="ArialMT-31"/>
       <path d="M 4.15625 35.296875 
Q 4.15625 48 6.765625 55.734375 
Q 9.375 63.484375 14.515625 67.671875 
Q 19.671875 71.875 27.484375 71.875 
Q 33.25 71.875 37.59375 69.546875 
Q 41.9375 67.234375 44.765625 62.859375 
Q 47.609375 58.5 49.21875 52.21875 
Q 50.828125 45.953125 50.828125 35.296875 
Q 50.828125 22.703125 48.234375 14.96875 
Q 45.65625 7.234375 40.5 3 
Q 35.359375 -1.21875 27.484375 -1.21875 
Q 17.140625 -1.21875 11.234375 6.203125 
Q 4.15625 15.140625 4.15625 35.296875 
z
M 13.1875 35.296875 
Q 13.1875 17.671875 17.3125 11.828125 
Q 21.4375 6 27.484375 6 
Q 33.546875 6 37.671875 11.859375 
Q 41.796875 17.71875 41.796875 35.296875 
Q 41.796875 52.984375 37.671875 58.78125 
Q 33.546875 64.59375 27.390625 64.59375 
Q 21.34375 64.59375 17.71875 59.46875 
Q 13.1875 52.9375 13.1875 35.296875 
z
" id="ArialMT-30"/>
      </defs>
      <g style="fill:#262626;" transform="translate(66.204756 363.8125)scale(0.1 -0.1)">
       <use transform="translate(0 0.99375)" xlink:href="#ArialMT-31"/>
       <use transform="translate(55.615234 0.99375)" xlink:href="#ArialMT-30"/>
       <use transform="translate(112.972813 70.6875)scale(0.7)" xlink:href="#ArialMT-30"/>
      </g>
     </g>
    </g>
    <g id="xtick_2">
     <g id="line2d_3">
      <path clip-path="url(#p25b620ae2f)" d="M 134.633946 346.5 
L 134.633946 47.52 
" style="fill:none;stroke:#ffffff;stroke-linecap:round;"/>
     </g>
     <g id="line2d_4"/>
     <g id="text_2">
      <!-- $\mathdefault{10^{1}}$ -->
      <g style="fill:#262626;" transform="translate(126.783946 363.8125)scale(0.1 -0.1)">
       <use transform="translate(0 0.99375)" xlink:href="#ArialMT-31"/>
       <use transform="translate(55.615234 0.99375)" xlink:href="#ArialMT-30"/>
       <use transform="translate(112.972813 70.6875)scale(0.7)" xlink:href="#ArialMT-31"/>
      </g>
     </g>
    </g>
    <g id="xtick_3">
     <g id="line2d_5">
      <path clip-path="url(#p25b620ae2f)" d="M 195.213137 346.5 
L 195.213137 47.52 
" style="fill:none;stroke:#ffffff;stroke-linecap:round;"/>
     </g>
     <g id="line2d_6"/>
     <g id="text_3">
      <!-- $\mathdefault{10^{2}}$ -->
      <defs>
       <path d="M 50.34375 8.453125 
L 50.34375 0 
L 3.03125 0 
Q 2.9375 3.171875 4.046875 6.109375 
Q 5.859375 10.9375 9.828125 15.625 
Q 13.8125 20.3125 21.34375 26.46875 
Q 33.015625 36.03125 37.109375 41.625 
Q 41.21875 47.21875 41.21875 52.203125 
Q 41.21875 57.421875 37.46875 61 
Q 33.734375 64.59375 27.734375 64.59375 
Q 21.390625 64.59375 17.578125 60.78125 
Q 13.765625 56.984375 13.71875 50.25 
L 4.6875 51.171875 
Q 5.609375 61.28125 11.65625 66.578125 
Q 17.71875 71.875 27.9375 71.875 
Q 38.234375 71.875 44.234375 66.15625 
Q 50.25 60.453125 50.25 52 
Q 50.25 47.703125 48.484375 43.546875 
Q 46.734375 39.40625 42.65625 34.8125 
Q 38.578125 30.21875 29.109375 22.21875 
Q 21.1875 15.578125 18.9375 13.203125 
Q 16.703125 10.84375 15.234375 8.453125 
z
" id="ArialMT-32"/>
      </defs>
      <g style="fill:#262626;" transform="translate(187.363137 363.8125)scale(0.1 -0.1)">
       <use transform="translate(0 0.99375)" xlink:href="#ArialMT-31"/>
       <use transform="translate(55.615234 0.99375)" xlink:href="#ArialMT-30"/>
       <use transform="translate(112.972813 70.6875)scale(0.7)" xlink:href="#ArialMT-32"/>
      </g>
     </g>
    </g>
    <g id="xtick_4">
     <g id="line2d_7">
      <path clip-path="url(#p25b620ae2f)" d="M 255.792328 346.5 
L 255.792328 47.52 
" style="fill:none;stroke:#ffffff;stroke-linecap:round;"/>
     </g>
     <g id="line2d_8"/>
     <g id="text_4">
      <!-- $\mathdefault{10^{3}}$ -->
      <defs>
       <path d="M 4.203125 18.890625 
L 12.984375 20.0625 
Q 14.5 12.59375 18.140625 9.296875 
Q 21.78125 6 27 6 
Q 33.203125 6 37.46875 10.296875 
Q 41.75 14.59375 41.75 20.953125 
Q 41.75 27 37.796875 30.921875 
Q 33.84375 34.859375 27.734375 34.859375 
Q 25.25 34.859375 21.53125 33.890625 
L 22.515625 41.609375 
Q 23.390625 41.5 23.921875 41.5 
Q 29.546875 41.5 34.03125 44.421875 
Q 38.53125 47.359375 38.53125 53.46875 
Q 38.53125 58.296875 35.25 61.46875 
Q 31.984375 64.65625 26.8125 64.65625 
Q 21.6875 64.65625 18.265625 61.421875 
Q 14.84375 58.203125 13.875 51.765625 
L 5.078125 53.328125 
Q 6.6875 62.15625 12.390625 67.015625 
Q 18.109375 71.875 26.609375 71.875 
Q 32.46875 71.875 37.390625 69.359375 
Q 42.328125 66.84375 44.9375 62.5 
Q 47.5625 58.15625 47.5625 53.265625 
Q 47.5625 48.640625 45.0625 44.828125 
Q 42.578125 41.015625 37.703125 38.765625 
Q 44.046875 37.3125 47.5625 32.6875 
Q 51.078125 28.078125 51.078125 21.140625 
Q 51.078125 11.765625 44.234375 5.25 
Q 37.40625 -1.265625 26.953125 -1.265625 
Q 17.53125 -1.265625 11.296875 4.34375 
Q 5.078125 9.96875 4.203125 18.890625 
z
" id="ArialMT-33"/>
      </defs>
      <g style="fill:#262626;" transform="translate(247.942328 363.8125)scale(0.1 -0.1)">
       <use transform="translate(0 0.99375)" xlink:href="#ArialMT-31"/>
       <use transform="translate(55.615234 0.99375)" xlink:href="#ArialMT-30"/>
       <use transform="translate(112.972813 70.6875)scale(0.7)" xlink:href="#ArialMT-33"/>
      </g>
     </g>
    </g>
    <g id="xtick_5">
     <g id="line2d_9">
      <path clip-path="url(#p25b620ae2f)" d="M 316.371519 346.5 
L 316.371519 47.52 
" style="fill:none;stroke:#ffffff;stroke-linecap:round;"/>
     </g>
     <g id="line2d_10"/>
     <g id="text_5">
      <!-- $\mathdefault{10^{4}}$ -->
      <defs>
       <path d="M 32.328125 0 
L 32.328125 17.140625 
L 1.265625 17.140625 
L 1.265625 25.203125 
L 33.9375 71.578125 
L 41.109375 71.578125 
L 41.109375 25.203125 
L 50.78125 25.203125 
L 50.78125 17.140625 
L 41.109375 17.140625 
L 41.109375 0 
z
M 32.328125 25.203125 
L 32.328125 57.46875 
L 9.90625 25.203125 
z
" id="ArialMT-34"/>
      </defs>
      <g style="fill:#262626;" transform="translate(308.521519 363.7125)scale(0.1 -0.1)">
       <use transform="translate(0 0.201563)" xlink:href="#ArialMT-31"/>
       <use transform="translate(55.615234 0.201563)" xlink:href="#ArialMT-30"/>
       <use transform="translate(112.972813 69.895313)scale(0.7)" xlink:href="#ArialMT-34"/>
      </g>
     </g>
    </g>
    <g id="xtick_6">
     <g id="line2d_11">
      <path clip-path="url(#p25b620ae2f)" d="M 376.950709 346.5 
L 376.950709 47.52 
" style="fill:none;stroke:#ffffff;stroke-linecap:round;"/>
     </g>
     <g id="line2d_12"/>
     <g id="text_6">
      <!-- $\mathdefault{10^{5}}$ -->
      <defs>
       <path d="M 4.15625 18.75 
L 13.375 19.53125 
Q 14.40625 12.796875 18.140625 9.390625 
Q 21.875 6 27.15625 6 
Q 33.5 6 37.890625 10.78125 
Q 42.28125 15.578125 42.28125 23.484375 
Q 42.28125 31 38.0625 35.34375 
Q 33.84375 39.703125 27 39.703125 
Q 22.75 39.703125 19.328125 37.765625 
Q 15.921875 35.84375 13.96875 32.765625 
L 5.71875 33.84375 
L 12.640625 70.609375 
L 48.25 70.609375 
L 48.25 62.203125 
L 19.671875 62.203125 
L 15.828125 42.96875 
Q 22.265625 47.46875 29.34375 47.46875 
Q 38.71875 47.46875 45.15625 40.96875 
Q 51.609375 34.46875 51.609375 24.265625 
Q 51.609375 14.546875 45.953125 7.46875 
Q 39.0625 -1.21875 27.15625 -1.21875 
Q 17.390625 -1.21875 11.203125 4.25 
Q 5.03125 9.71875 4.15625 18.75 
z
" id="ArialMT-35"/>
      </defs>
      <g style="fill:#262626;" transform="translate(369.100709 363.7125)scale(0.1 -0.1)">
       <use transform="translate(0 0.879688)" xlink:href="#ArialMT-31"/>
       <use transform="translate(55.615234 0.879688)" xlink:href="#ArialMT-30"/>
       <use transform="translate(112.972813 70.573438)scale(0.7)" xlink:href="#ArialMT-35"/>
      </g>
     </g>
    </g>
    <g id="xtick_7">
     <g id="line2d_13">
      <path clip-path="url(#p25b620ae2f)" d="M 437.5299 346.5 
L 437.5299 47.52 
" style="fill:none;stroke:#ffffff;stroke-linecap:round;"/>
     </g>
     <g id="line2d_14"/>
     <g id="text_7">
      <!-- $\mathdefault{10^{6}}$ -->
      <defs>
       <path d="M 49.75 54.046875 
L 41.015625 53.375 
Q 39.84375 58.546875 37.703125 60.890625 
Q 34.125 64.65625 28.90625 64.65625 
Q 24.703125 64.65625 21.53125 62.3125 
Q 17.390625 59.28125 14.984375 53.46875 
Q 12.59375 47.65625 12.5 36.921875 
Q 15.671875 41.75 20.265625 44.09375 
Q 24.859375 46.4375 29.890625 46.4375 
Q 38.671875 46.4375 44.84375 39.96875 
Q 51.03125 33.5 51.03125 23.25 
Q 51.03125 16.5 48.125 10.71875 
Q 45.21875 4.9375 40.140625 1.859375 
Q 35.0625 -1.21875 28.609375 -1.21875 
Q 17.625 -1.21875 10.6875 6.859375 
Q 3.765625 14.9375 3.765625 33.5 
Q 3.765625 54.25 11.421875 63.671875 
Q 18.109375 71.875 29.4375 71.875 
Q 37.890625 71.875 43.28125 67.140625 
Q 48.6875 62.40625 49.75 54.046875 
z
M 13.875 23.1875 
Q 13.875 18.65625 15.796875 14.5 
Q 17.71875 10.359375 21.1875 8.171875 
Q 24.65625 6 28.46875 6 
Q 34.03125 6 38.03125 10.484375 
Q 42.046875 14.984375 42.046875 22.703125 
Q 42.046875 30.125 38.078125 34.390625 
Q 34.125 38.671875 28.125 38.671875 
Q 22.171875 38.671875 18.015625 34.390625 
Q 13.875 30.125 13.875 23.1875 
z
" id="ArialMT-36"/>
      </defs>
      <g style="fill:#262626;" transform="translate(429.6799 363.8125)scale(0.1 -0.1)">
       <use transform="translate(0 0.99375)" xlink:href="#ArialMT-31"/>
       <use transform="translate(55.615234 0.99375)" xlink:href="#ArialMT-30"/>
       <use transform="translate(112.972813 70.6875)scale(0.7)" xlink:href="#ArialMT-36"/>
      </g>
     </g>
    </g>
    <g id="xtick_8">
     <g id="line2d_15">
      <path clip-path="url(#p25b620ae2f)" d="M 498.109091 346.5 
L 498.109091 47.52 
" style="fill:none;stroke:#ffffff;stroke-linecap:round;"/>
     </g>
     <g id="line2d_16"/>
     <g id="text_8">
      <!-- $\mathdefault{10^{7}}$ -->
      <defs>
       <path d="M 4.734375 62.203125 
L 4.734375 70.65625 
L 51.078125 70.65625 
L 51.078125 63.8125 
Q 44.234375 56.546875 37.515625 44.484375 
Q 30.8125 32.421875 27.15625 19.671875 
Q 24.515625 10.6875 23.78125 0 
L 14.75 0 
Q 14.890625 8.453125 18.0625 20.40625 
Q 21.234375 32.375 27.171875 43.484375 
Q 33.109375 54.59375 39.796875 62.203125 
z
" id="ArialMT-37"/>
      </defs>
      <g style="fill:#262626;" transform="translate(490.259091 363.7125)scale(0.1 -0.1)">
       <use transform="translate(0 0.846875)" xlink:href="#ArialMT-31"/>
       <use transform="translate(55.615234 0.846875)" xlink:href="#ArialMT-30"/>
       <use transform="translate(112.972813 70.540625)scale(0.7)" xlink:href="#ArialMT-37"/>
      </g>
     </g>
    </g>
    <g id="xtick_9">
     <g id="line2d_17"/>
    </g>
    <g id="xtick_10">
     <g id="line2d_18"/>
    </g>
    <g id="xtick_11">
     <g id="line2d_19"/>
    </g>
    <g id="xtick_12">
     <g id="line2d_20"/>
    </g>
    <g id="xtick_13">
     <g id="line2d_21"/>
    </g>
    <g id="xtick_14">
     <g id="line2d_22"/>
    </g>
    <g id="xtick_15">
     <g id="line2d_23"/>
    </g>
    <g id="xtick_16">
     <g id="line2d_24"/>
    </g>
    <g id="xtick_17">
     <g id="line2d_25"/>
    </g>
    <g id="xtick_18">
     <g id="line2d_26"/>
    </g>
    <g id="xtick_19">
     <g id="line2d_27"/>
    </g>
    <g id="xtick_20">
     <g id="line2d_28"/>
    </g>
    <g id="xtick_21">
     <g id="line2d_29"/>
    </g>
    <g id="xtick_22">
     <g id="line2d_30"/>
    </g>
    <g id="xtick_23">
     <g id="line2d_31"/>
    </g>
    <g id="xtick_24">
     <g id="line2d_32"/>
    </g>
    <g id="xtick_25">
     <g id="line2d_33"/>
    </g>
    <g id="xtick_26">
     <g id="line2d_34"/>
    </g>
    <g id="xtick_27">
     <g id="line2d_35"/>
    </g>
    <g id="xtick_28">
     <g id="line2d_36"/>
    </g>
    <g id="xtick_29">
     <g id="line2d_37"/>
    </g>
    <g id="xtick_30">
     <g id="line2d_38"/>
    </g>
    <g id="xtick_31">
     <g id="line2d_39"/>
    </g>
    <g id="xtick_32">
     <g id="line2d_40"/>
    </g>
    <g id="xtick_33">
     <g id="line2d_41"/>
    </g>
    <g id="xtick_34">
     <g id="line2d_42"/>
    </g>
    <g id="xtick_35">
     <g id="line2d_43"/>
    </g>
    <g id="xtick_36">
     <g id="line2d_44"/>
    </g>
    <g id="xtick_37">
     <g id="line2d_45"/>
    </g>
    <g id="xtick_38">
     <g id="line2d_46"/>
    </g>
    <g id="xtick_39">
     <g id="line2d_47"/>
    </g>
    <g id="xtick_40">
     <g id="line2d_48"/>
    </g>
    <g id="xtick_41">
     <g id="line2d_49"/>
    </g>
    <g id="xtick_42">
     <g id="line2d_50"/>
    </g>
    <g id="xtick_43">
     <g id="line2d_51"/>
    </g>
    <g id="xtick_44">
     <g id="line2d_52"/>
    </g>
    <g id="xtick_45">
     <g id="line2d_53"/>
    </g>
    <g id="xtick_46">
     <g id="line2d_54"/>
    </g>
    <g id="xtick_47">
     <g id="line2d_55"/>
    </g>
    <g id="xtick_48">
     <g id="line2d_56"/>
    </g>
    <g id="xtick_49">
     <g id="line2d_57"/>
    </g>
    <g id="xtick_50">
     <g id="line2d_58"/>
    </g>
    <g id="xtick_51">
     <g id="line2d_59"/>
    </g>
    <g id="xtick_52">
     <g id="line2d_60"/>
    </g>
    <g id="xtick_53">
     <g id="line2d_61"/>
    </g>
    <g id="xtick_54">
     <g id="line2d_62"/>
    </g>
    <g id="xtick_55">
     <g id="line2d_63"/>
    </g>
    <g id="xtick_56">
     <g id="line2d_64"/>
    </g>
    <g id="xtick_57">
     <g id="line2d_65"/>
    </g>
    <g id="xtick_58">
     <g id="line2d_66"/>
    </g>
    <g id="xtick_59">
     <g id="line2d_67"/>
    </g>
    <g id="xtick_60">
     <g id="line2d_68"/>
    </g>
    <g id="xtick_61">
     <g id="line2d_69"/>
    </g>
    <g id="xtick_62">
     <g id="line2d_70"/>
    </g>
    <g id="xtick_63">
     <g id="line2d_71"/>
    </g>
    <g id="xtick_64">
     <g id="line2d_72"/>
    </g>
    <g id="xtick_65">
     <g id="line2d_73"/>
    </g>
    <g id="text_9">
     <!-- N -->
     <defs>
      <path d="M 7.625 0 
L 7.625 71.578125 
L 17.328125 71.578125 
L 54.9375 15.375 
L 54.9375 71.578125 
L 64.015625 71.578125 
L 64.015625 0 
L 54.296875 0 
L 16.703125 56.25 
L 16.703125 0 
z
" id="ArialMT-4e"/>
     </defs>
     <g style="fill:#262626;" transform="translate(291.227969 377.673594)scale(0.11 -0.11)">
      <use xlink:href="#ArialMT-4e"/>
     </g>
    </g>
   </g>
   <g id="matplotlib.axis_2">
    <g id="ytick_1">
     <g id="line2d_74">
      <path clip-path="url(#p25b620ae2f)" d="M 72 346.5 
L 518.4 346.5 
" style="fill:none;stroke:#ffffff;stroke-linecap:round;"/>
     </g>
     <g id="line2d_75"/>
     <g id="text_10">
      <!-- 0 -->
      <g style="fill:#262626;" transform="translate(59.439062 350.078906)scale(0.1 -0.1)">
       <use xlink:href="#ArialMT-30"/>
      </g>
     </g>
    </g>
    <g id="ytick_2">
     <g id="line2d_76">
      <path clip-path="url(#p25b620ae2f)" d="M 72 296.67 
L 518.4 296.67 
" style="fill:none;stroke:#ffffff;stroke-linecap:round;"/>
     </g>
     <g id="line2d_77"/>
     <g id="text_11">
      <!-- 2 -->
      <g style="fill:#262626;" transform="translate(59.439062 300.248906)scale(0.1 -0.1)">
       <use xlink:href="#ArialMT-32"/>
      </g>
     </g>
    </g>
    <g id="ytick_3">
     <g id="line2d_78">
      <path clip-path="url(#p25b620ae2f)" d="M 72 246.84 
L 518.4 246.84 
" style="fill:none;stroke:#ffffff;stroke-linecap:round;"/>
     </g>
     <g id="line2d_79"/>
     <g id="text_12">
      <!-- 4 -->
      <g style="fill:#262626;" transform="translate(59.439062 250.418906)scale(0.1 -0.1)">
       <use xlink:href="#ArialMT-34"/>
      </g>
     </g>
    </g>
    <g id="ytick_4">
     <g id="line2d_80">
      <path clip-path="url(#p25b620ae2f)" d="M 72 197.01 
L 518.4 197.01 
" style="fill:none;stroke:#ffffff;stroke-linecap:round;"/>
     </g>
     <g id="line2d_81"/>
     <g id="text_13">
      <!-- 6 -->
      <g style="fill:#262626;" transform="translate(59.439062 200.588906)scale(0.1 -0.1)">
       <use xlink:href="#ArialMT-36"/>
      </g>
     </g>
    </g>
    <g id="ytick_5">
     <g id="line2d_82">
      <path clip-path="url(#p25b620ae2f)" d="M 72 147.18 
L 518.4 147.18 
" style="fill:none;stroke:#ffffff;stroke-linecap:round;"/>
     </g>
     <g id="line2d_83"/>
     <g id="text_14">
      <!-- 8 -->
      <defs>
       <path d="M 17.671875 38.8125 
Q 12.203125 40.828125 9.5625 44.53125 
Q 6.9375 48.25 6.9375 53.421875 
Q 6.9375 61.234375 12.546875 66.546875 
Q 18.171875 71.875 27.484375 71.875 
Q 36.859375 71.875 42.578125 66.421875 
Q 48.296875 60.984375 48.296875 53.171875 
Q 48.296875 48.1875 45.671875 44.5 
Q 43.0625 40.828125 37.75 38.8125 
Q 44.34375 36.671875 47.78125 31.875 
Q 51.21875 27.09375 51.21875 20.453125 
Q 51.21875 11.28125 44.71875 5.03125 
Q 38.234375 -1.21875 27.640625 -1.21875 
Q 17.046875 -1.21875 10.546875 5.046875 
Q 4.046875 11.328125 4.046875 20.703125 
Q 4.046875 27.6875 7.59375 32.390625 
Q 11.140625 37.109375 17.671875 38.8125 
z
M 15.921875 53.71875 
Q 15.921875 48.640625 19.1875 45.40625 
Q 22.46875 42.1875 27.6875 42.1875 
Q 32.765625 42.1875 36.015625 45.375 
Q 39.265625 48.578125 39.265625 53.21875 
Q 39.265625 58.0625 35.90625 61.359375 
Q 32.5625 64.65625 27.59375 64.65625 
Q 22.5625 64.65625 19.234375 61.421875 
Q 15.921875 58.203125 15.921875 53.71875 
z
M 13.09375 20.65625 
Q 13.09375 16.890625 14.875 13.375 
Q 16.65625 9.859375 20.171875 7.921875 
Q 23.6875 6 27.734375 6 
Q 34.03125 6 38.125 10.046875 
Q 42.234375 14.109375 42.234375 20.359375 
Q 42.234375 26.703125 38.015625 30.859375 
Q 33.796875 35.015625 27.4375 35.015625 
Q 21.234375 35.015625 17.15625 30.90625 
Q 13.09375 26.8125 13.09375 20.65625 
z
" id="ArialMT-38"/>
      </defs>
      <g style="fill:#262626;" transform="translate(59.439062 150.758906)scale(0.1 -0.1)">
       <use xlink:href="#ArialMT-38"/>
      </g>
     </g>
    </g>
    <g id="ytick_6">
     <g id="line2d_84">
      <path clip-path="url(#p25b620ae2f)" d="M 72 97.35 
L 518.4 97.35 
" style="fill:none;stroke:#ffffff;stroke-linecap:round;"/>
     </g>
     <g id="line2d_85"/>
     <g id="text_15">
      <!-- 10 -->
      <g style="fill:#262626;" transform="translate(53.878125 100.928906)scale(0.1 -0.1)">
       <use xlink:href="#ArialMT-31"/>
       <use x="55.615234" xlink:href="#ArialMT-30"/>
      </g>
     </g>
    </g>
    <g id="ytick_7">
     <g id="line2d_86">
      <path clip-path="url(#p25b620ae2f)" d="M 72 47.52 
L 518.4 47.52 
" style="fill:none;stroke:#ffffff;stroke-linecap:round;"/>
     </g>
     <g id="line2d_87"/>
     <g id="text_16">
      <!-- 12 -->
      <g style="fill:#262626;" transform="translate(53.878125 51.098906)scale(0.1 -0.1)">
       <use xlink:href="#ArialMT-31"/>
       <use x="55.615234" xlink:href="#ArialMT-32"/>
      </g>
     </g>
    </g>
    <g id="text_17">
     <!-- Expected GCD(i,j) -->
     <defs>
      <path d="M 7.90625 0 
L 7.90625 71.578125 
L 59.671875 71.578125 
L 59.671875 63.140625 
L 17.390625 63.140625 
L 17.390625 41.21875 
L 56.984375 41.21875 
L 56.984375 32.8125 
L 17.390625 32.8125 
L 17.390625 8.453125 
L 61.328125 8.453125 
L 61.328125 0 
z
" id="ArialMT-45"/>
      <path d="M 0.734375 0 
L 19.671875 26.953125 
L 2.15625 51.859375 
L 13.140625 51.859375 
L 21.09375 39.703125 
Q 23.34375 36.234375 24.703125 33.890625 
Q 26.859375 37.109375 28.65625 39.59375 
L 37.40625 51.859375 
L 47.90625 51.859375 
L 29.984375 27.4375 
L 49.265625 0 
L 38.484375 0 
L 27.828125 16.109375 
L 25 20.453125 
L 11.375 0 
z
" id="ArialMT-78"/>
      <path d="M 6.59375 -19.875 
L 6.59375 51.859375 
L 14.59375 51.859375 
L 14.59375 45.125 
Q 17.4375 49.078125 21 51.046875 
Q 24.5625 53.03125 29.640625 53.03125 
Q 36.28125 53.03125 41.359375 49.609375 
Q 46.4375 46.1875 49.015625 39.953125 
Q 51.609375 33.734375 51.609375 26.3125 
Q 51.609375 18.359375 48.75 11.984375 
Q 45.90625 5.609375 40.453125 2.21875 
Q 35.015625 -1.171875 29 -1.171875 
Q 24.609375 -1.171875 21.109375 0.6875 
Q 17.625 2.546875 15.375 5.375 
L 15.375 -19.875 
z
M 14.546875 25.640625 
Q 14.546875 15.625 18.59375 10.84375 
Q 22.65625 6.0625 28.421875 6.0625 
Q 34.28125 6.0625 38.453125 11.015625 
Q 42.625 15.96875 42.625 26.375 
Q 42.625 36.28125 38.546875 41.203125 
Q 34.46875 46.140625 28.8125 46.140625 
Q 23.1875 46.140625 18.859375 40.890625 
Q 14.546875 35.640625 14.546875 25.640625 
z
" id="ArialMT-70"/>
      <path d="M 42.09375 16.703125 
L 51.171875 15.578125 
Q 49.03125 7.625 43.21875 3.21875 
Q 37.40625 -1.171875 28.375 -1.171875 
Q 17 -1.171875 10.328125 5.828125 
Q 3.65625 12.84375 3.65625 25.484375 
Q 3.65625 38.578125 10.390625 45.796875 
Q 17.140625 53.03125 27.875 53.03125 
Q 38.28125 53.03125 44.875 45.953125 
Q 51.46875 38.875 51.46875 26.03125 
Q 51.46875 25.25 51.421875 23.6875 
L 12.75 23.6875 
Q 13.234375 15.140625 17.578125 10.59375 
Q 21.921875 6.0625 28.421875 6.0625 
Q 33.25 6.0625 36.671875 8.59375 
Q 40.09375 11.140625 42.09375 16.703125 
z
M 13.234375 30.90625 
L 42.1875 30.90625 
Q 41.609375 37.453125 38.875 40.71875 
Q 34.671875 45.796875 27.984375 45.796875 
Q 21.921875 45.796875 17.796875 41.75 
Q 13.671875 37.703125 13.234375 30.90625 
z
" id="ArialMT-65"/>
      <path d="M 40.4375 19 
L 49.078125 17.875 
Q 47.65625 8.9375 41.8125 3.875 
Q 35.984375 -1.171875 27.484375 -1.171875 
Q 16.84375 -1.171875 10.375 5.78125 
Q 3.90625 12.75 3.90625 25.734375 
Q 3.90625 34.125 6.6875 40.421875 
Q 9.46875 46.734375 15.15625 49.875 
Q 20.84375 53.03125 27.546875 53.03125 
Q 35.984375 53.03125 41.359375 48.75 
Q 46.734375 44.484375 48.25 36.625 
L 39.703125 35.296875 
Q 38.484375 40.53125 35.375 43.15625 
Q 32.28125 45.796875 27.875 45.796875 
Q 21.234375 45.796875 17.078125 41.03125 
Q 12.9375 36.28125 12.9375 25.984375 
Q 12.9375 15.53125 16.9375 10.796875 
Q 20.953125 6.0625 27.390625 6.0625 
Q 32.5625 6.0625 36.03125 9.234375 
Q 39.5 12.40625 40.4375 19 
z
" id="ArialMT-63"/>
      <path d="M 25.78125 7.859375 
L 27.046875 0.09375 
Q 23.34375 -0.6875 20.40625 -0.6875 
Q 15.625 -0.6875 12.984375 0.828125 
Q 10.359375 2.34375 9.28125 4.8125 
Q 8.203125 7.28125 8.203125 15.1875 
L 8.203125 45.015625 
L 1.765625 45.015625 
L 1.765625 51.859375 
L 8.203125 51.859375 
L 8.203125 64.703125 
L 16.9375 69.96875 
L 16.9375 51.859375 
L 25.78125 51.859375 
L 25.78125 45.015625 
L 16.9375 45.015625 
L 16.9375 14.703125 
Q 16.9375 10.9375 17.40625 9.859375 
Q 17.875 8.796875 18.921875 8.15625 
Q 19.96875 7.515625 21.921875 7.515625 
Q 23.390625 7.515625 25.78125 7.859375 
z
" id="ArialMT-74"/>
      <path d="M 40.234375 0 
L 40.234375 6.546875 
Q 35.296875 -1.171875 25.734375 -1.171875 
Q 19.53125 -1.171875 14.328125 2.25 
Q 9.125 5.671875 6.265625 11.796875 
Q 3.421875 17.921875 3.421875 25.875 
Q 3.421875 33.640625 6 39.96875 
Q 8.59375 46.296875 13.765625 49.65625 
Q 18.953125 53.03125 25.34375 53.03125 
Q 30.03125 53.03125 33.6875 51.046875 
Q 37.359375 49.078125 39.65625 45.90625 
L 39.65625 71.578125 
L 48.390625 71.578125 
L 48.390625 0 
z
M 12.453125 25.875 
Q 12.453125 15.921875 16.640625 10.984375 
Q 20.84375 6.0625 26.5625 6.0625 
Q 32.328125 6.0625 36.34375 10.765625 
Q 40.375 15.484375 40.375 25.140625 
Q 40.375 35.796875 36.265625 40.765625 
Q 32.171875 45.75 26.171875 45.75 
Q 20.3125 45.75 16.375 40.96875 
Q 12.453125 36.1875 12.453125 25.875 
z
" id="ArialMT-64"/>
      <path id="ArialMT-20"/>
      <path d="M 41.21875 28.078125 
L 41.21875 36.46875 
L 71.53125 36.53125 
L 71.53125 9.96875 
Q 64.546875 4.390625 57.125 1.578125 
Q 49.703125 -1.21875 41.890625 -1.21875 
Q 31.34375 -1.21875 22.71875 3.296875 
Q 14.109375 7.8125 9.71875 16.359375 
Q 5.328125 24.90625 5.328125 35.453125 
Q 5.328125 45.90625 9.6875 54.953125 
Q 14.0625 64.015625 22.265625 68.40625 
Q 30.46875 72.796875 41.15625 72.796875 
Q 48.921875 72.796875 55.1875 70.28125 
Q 61.46875 67.78125 65.03125 63.28125 
Q 68.609375 58.796875 70.453125 51.5625 
L 61.921875 49.21875 
Q 60.296875 54.6875 57.90625 57.8125 
Q 55.515625 60.9375 51.0625 62.8125 
Q 46.625 64.703125 41.21875 64.703125 
Q 34.71875 64.703125 29.984375 62.71875 
Q 25.25 60.75 22.34375 57.515625 
Q 19.4375 54.296875 17.828125 50.4375 
Q 15.09375 43.796875 15.09375 36.03125 
Q 15.09375 26.46875 18.390625 20.015625 
Q 21.6875 13.578125 27.984375 10.453125 
Q 34.28125 7.328125 41.359375 7.328125 
Q 47.515625 7.328125 53.375 9.6875 
Q 59.234375 12.0625 62.25 14.75 
L 62.25 28.078125 
z
" id="ArialMT-47"/>
      <path d="M 58.796875 25.09375 
L 68.265625 22.703125 
Q 65.28125 11.03125 57.546875 4.90625 
Q 49.8125 -1.21875 38.625 -1.21875 
Q 27.046875 -1.21875 19.796875 3.484375 
Q 12.546875 8.203125 8.765625 17.140625 
Q 4.984375 26.078125 4.984375 36.328125 
Q 4.984375 47.515625 9.25 55.828125 
Q 13.53125 64.15625 21.40625 68.46875 
Q 29.296875 72.796875 38.765625 72.796875 
Q 49.515625 72.796875 56.828125 67.328125 
Q 64.15625 61.859375 67.046875 51.953125 
L 57.71875 49.75 
Q 55.21875 57.5625 50.484375 61.125 
Q 45.75 64.703125 38.578125 64.703125 
Q 30.328125 64.703125 24.78125 60.734375 
Q 19.234375 56.78125 16.984375 50.109375 
Q 14.75 43.453125 14.75 36.375 
Q 14.75 27.25 17.40625 20.4375 
Q 20.0625 13.625 25.671875 10.25 
Q 31.296875 6.890625 37.84375 6.890625 
Q 45.796875 6.890625 51.3125 11.46875 
Q 56.84375 16.0625 58.796875 25.09375 
z
" id="ArialMT-43"/>
      <path d="M 7.71875 0 
L 7.71875 71.578125 
L 32.375 71.578125 
Q 40.71875 71.578125 45.125 70.5625 
Q 51.265625 69.140625 55.609375 65.4375 
Q 61.28125 60.640625 64.078125 53.1875 
Q 66.890625 45.75 66.890625 36.1875 
Q 66.890625 28.03125 64.984375 21.734375 
Q 63.09375 15.4375 60.109375 11.296875 
Q 57.125 7.171875 53.578125 4.796875 
Q 50.046875 2.4375 45.046875 1.21875 
Q 40.046875 0 33.546875 0 
z
M 17.1875 8.453125 
L 32.46875 8.453125 
Q 39.546875 8.453125 43.578125 9.765625 
Q 47.609375 11.078125 50 13.484375 
Q 53.375 16.84375 55.25 22.53125 
Q 57.125 28.21875 57.125 36.328125 
Q 57.125 47.5625 53.4375 53.59375 
Q 49.75 59.625 44.484375 61.671875 
Q 40.671875 63.140625 32.234375 63.140625 
L 17.1875 63.140625 
z
" id="ArialMT-44"/>
      <path d="M 23.390625 -21.046875 
Q 16.109375 -11.859375 11.078125 0.4375 
Q 6.0625 12.75 6.0625 25.921875 
Q 6.0625 37.546875 9.8125 48.1875 
Q 14.203125 60.546875 23.390625 72.796875 
L 29.6875 72.796875 
Q 23.78125 62.640625 21.875 58.296875 
Q 18.890625 51.5625 17.1875 44.234375 
Q 15.09375 35.109375 15.09375 25.875 
Q 15.09375 2.390625 29.6875 -21.046875 
z
" id="ArialMT-28"/>
      <path d="M 6.640625 61.46875 
L 6.640625 71.578125 
L 15.4375 71.578125 
L 15.4375 61.46875 
z
M 6.640625 0 
L 6.640625 51.859375 
L 15.4375 51.859375 
L 15.4375 0 
z
" id="ArialMT-69"/>
      <path d="M 8.890625 0 
L 8.890625 10.015625 
L 18.890625 10.015625 
L 18.890625 0 
Q 18.890625 -5.515625 16.9375 -8.90625 
Q 14.984375 -12.3125 10.75 -14.15625 
L 8.296875 -10.40625 
Q 11.078125 -9.1875 12.390625 -6.8125 
Q 13.71875 -4.4375 13.875 0 
z
" id="ArialMT-2c"/>
      <path d="M 6.546875 61.375 
L 6.546875 71.578125 
L 15.328125 71.578125 
L 15.328125 61.375 
z
M -4.59375 -20.125 
L -2.9375 -12.640625 
Q -0.296875 -13.328125 1.21875 -13.328125 
Q 3.90625 -13.328125 5.21875 -11.546875 
Q 6.546875 -9.765625 6.546875 -2.640625 
L 6.546875 51.859375 
L 15.328125 51.859375 
L 15.328125 -2.828125 
Q 15.328125 -12.40625 12.84375 -16.15625 
Q 9.671875 -21.046875 2.296875 -21.046875 
Q -1.265625 -21.046875 -4.59375 -20.125 
z
" id="ArialMT-6a"/>
      <path d="M 12.359375 -21.046875 
L 6.0625 -21.046875 
Q 20.65625 2.390625 20.65625 25.875 
Q 20.65625 35.0625 18.5625 44.09375 
Q 16.890625 51.421875 13.921875 58.15625 
Q 12.015625 62.546875 6.0625 72.796875 
L 12.359375 72.796875 
Q 21.53125 60.546875 25.921875 48.1875 
Q 29.6875 37.546875 29.6875 25.921875 
Q 29.6875 12.75 24.625 0.4375 
Q 19.578125 -11.859375 12.359375 -21.046875 
z
" id="ArialMT-29"/>
     </defs>
     <g style="fill:#262626;" transform="translate(47.562969 241.325391)rotate(-90)scale(0.11 -0.11)">
      <use xlink:href="#ArialMT-45"/>
      <use x="66.699219" xlink:href="#ArialMT-78"/>
      <use x="116.699219" xlink:href="#ArialMT-70"/>
      <use x="172.314453" xlink:href="#ArialMT-65"/>
      <use x="227.929688" xlink:href="#ArialMT-63"/>
      <use x="277.929688" xlink:href="#ArialMT-74"/>
      <use x="305.712891" xlink:href="#ArialMT-65"/>
      <use x="361.328125" xlink:href="#ArialMT-64"/>
      <use x="416.943359" xlink:href="#ArialMT-20"/>
      <use x="444.726562" xlink:href="#ArialMT-47"/>
      <use x="522.509766" xlink:href="#ArialMT-43"/>
      <use x="594.726562" xlink:href="#ArialMT-44"/>
      <use x="666.943359" xlink:href="#ArialMT-28"/>
      <use x="700.244141" xlink:href="#ArialMT-69"/>
      <use x="722.460938" xlink:href="#ArialMT-2c"/>
      <use x="750.244141" xlink:href="#ArialMT-6a"/>
      <use x="772.460938" xlink:href="#ArialMT-29"/>
     </g>
    </g>
   </g>
   <g id="line2d_88">
    <path clip-path="url(#p25b620ae2f)" d="M 92.290909 327.839662 
L 106.284639 315.957698 
L 120.27837 302.591299 
L 134.2721 289.810402 
L 148.265831 277.723637 
L 162.259561 269.133942 
L 176.253292 259.984656 
L 190.247022 249.661375 
L 204.240752 242.870542 
L 218.234483 233.902139 
L 232.228213 225.2372 
L 246.221944 218.171306 
L 260.215674 208.140029 
L 274.209404 205.95897 
L 288.203135 196.357227 
L 302.196865 171.394889 
L 316.190596 187.185517 
L 330.184326 176.279723 
L 344.178056 172.045668 
L 358.171787 194.217028 
L 372.165517 170.806396 
L 386.159248 192.448562 
L 400.152978 137.793025 
L 414.146708 191.79828 
L 428.140439 137.713795 
L 442.134169 166.543938 
L 456.1279 181.633459 
L 470.12163 177.804023 
L 484.115361 159.390343 
L 498.109091 188.689387 
" style="fill:none;stroke:#4c72b0;stroke-linecap:round;stroke-opacity:0.2;stroke-width:1.75;"/>
   </g>
   <g id="line2d_89">
    <path clip-path="url(#p25b620ae2f)" d="M 92.290909 327.74349 
L 106.284639 316.102205 
L 120.27837 302.492636 
L 134.2721 290.252394 
L 148.265831 278.026105 
L 162.259561 268.631157 
L 176.253292 260.529796 
L 190.247022 248.905952 
L 204.240752 242.675209 
L 218.234483 235.343721 
L 232.228213 224.713487 
L 246.221944 216.560302 
L 260.215674 208.734501 
L 274.209404 198.962339 
L 288.203135 191.985641 
L 302.196865 170.816362 
L 316.190596 179.419013 
L 330.184326 133.995979 
L 344.178056 156.975581 
L 358.171787 158.680764 
L 372.165517 179.706533 
L 386.159248 184.97755 
L 400.152978 93.214608 
L 414.146708 193.583689 
L 428.140439 188.816951 
L 442.134169 66.702557 
L 456.1279 184.635716 
L 470.12163 143.74472 
L 484.115361 183.11042 
L 498.109091 141.518814 
" style="fill:none;stroke:#4c72b0;stroke-linecap:round;stroke-opacity:0.2;stroke-width:1.75;"/>
   </g>
   <g id="line2d_90">
    <path clip-path="url(#p25b620ae2f)" d="M 92.290909 327.905935 
L 106.284639 315.942749 
L 120.27837 302.756734 
L 134.2721 290.362519 
L 148.265831 277.798881 
L 162.259561 268.631157 
L 176.253292 261.133237 
L 190.247022 249.441126 
L 204.240752 239.081469 
L 218.234483 235.088591 
L 232.228213 220.857641 
L 246.221944 208.133053 
L 260.215674 207.665149 
L 274.209404 205.836388 
L 288.203135 175.591073 
L 302.196865 180.726054 
L 316.190596 170.898582 
L 330.184326 172.56988 
L 344.178056 179.93874 
L 358.171787 171.732238 
L 372.165517 159.862233 
L 386.159248 51.901054 
L 400.152978 100.48331 
L 414.146708 179.231653 
L 428.140439 128.779276 
L 442.134169 169.584066 
L 456.1279 186.681238 
L 470.12163 184.644187 
L 484.115361 116.41147 
L 498.109091 193.500473 
" style="fill:none;stroke:#4c72b0;stroke-linecap:round;stroke-opacity:0.2;stroke-width:1.75;"/>
   </g>
   <g id="line2d_91">
    <path clip-path="url(#p25b620ae2f)" d="M 92.290909 327.735019 
L 106.284639 315.911855 
L 120.27837 302.605251 
L 134.2721 290.39441 
L 148.265831 278.150182 
L 162.259561 268.131861 
L 176.253292 260.409207 
L 190.247022 251.125878 
L 204.240752 243.752533 
L 218.234483 232.90803 
L 232.228213 224.792716 
L 246.221944 218.292891 
L 260.215674 209.636424 
L 274.209404 212.682532 
L 288.203135 198.841252 
L 302.196865 192.613001 
L 316.190596 164.671825 
L 330.184326 166.003781 
L 344.178056 150.334239 
L 358.171787 77.628781 
L 372.165517 153.867684 
L 386.159248 98.30275 
L 400.152978 110.804598 
L 414.146708 175.809328 
L 428.140439 169.166989 
L 442.134169 166.989418 
L 456.1279 179.144948 
L 470.12163 128.708019 
L 484.115361 110.178734 
L 498.109091 152.843179 
" style="fill:none;stroke:#4c72b0;stroke-linecap:round;stroke-opacity:0.2;stroke-width:1.75;"/>
   </g>
   <g id="line2d_92">
    <path clip-path="url(#p25b620ae2f)" d="M 92.290909 327.856604 
L 106.284639 315.909861 
L 120.27837 302.69943 
L 134.2721 290.120843 
L 148.265831 277.860172 
L 162.259561 268.528009 
L 176.253292 259.748462 
L 190.247022 250.426265 
L 204.240752 242.946782 
L 218.234483 234.015253 
L 232.228213 227.417263 
L 246.221944 218.178781 
L 260.215674 203.886042 
L 274.209404 195.650139 
L 288.203135 201.743352 
L 302.196865 193.002671 
L 316.190596 161.747302 
L 330.184326 141.332948 
L 344.178056 180.297018 
L 358.171787 142.798946 
L 372.165517 137.871756 
L 386.159248 105.84153 
L 399.198903 -1 
M 401.372185 -1 
L 414.146708 80.907595 
L 428.140439 108.621546 
L 442.134169 163.452983 
L 456.1279 156.091597 
L 470.12163 149.72432 
L 484.115361 211.455219 
L 498.109091 185.587469 
" style="fill:none;stroke:#4c72b0;stroke-linecap:round;stroke-opacity:0.2;stroke-width:1.75;"/>
   </g>
   <g id="line2d_93">
    <path clip-path="url(#p25b620ae2f)" d="M 92.290909 327.809265 
L 106.284639 315.972647 
L 120.27837 302.78165 
L 134.2721 289.922021 
L 148.265831 278.134735 
L 162.259561 268.520036 
L 176.253292 259.760421 
L 190.247022 250.908619 
L 204.240752 241.63725 
L 218.234483 235.518126 
L 232.228213 227.489516 
L 246.221944 212.718409 
L 260.215674 209.341928 
L 274.209404 196.052267 
L 288.203135 197.544676 
L 302.196865 191.301475 
L 316.190596 157.1754 
L 330.184326 182.404827 
L 344.178056 183.572842 
L 358.171787 106.248641 
L 372.165517 198.217381 
L 386.159248 173.932232 
L 400.152978 207.567482 
L 414.146708 150.089075 
L 428.140439 185.346292 
L 440.782369 -1 
M 443.833049 -1 
L 456.1279 143.205061 
L 470.12163 119.062426 
L 484.115361 31.929688 
L 498.109091 121.46174 
" style="fill:none;stroke:#4c72b0;stroke-linecap:round;stroke-opacity:0.2;stroke-width:1.75;"/>
   </g>
   <g id="line2d_94">
    <path clip-path="url(#p25b620ae2f)" d="M 92.290909 327.854112 
L 106.284639 316.019487 
L 120.27837 302.740789 
L 134.2721 289.593642 
L 148.265831 277.837748 
L 162.259561 268.396956 
L 176.253292 260.771471 
L 190.247022 249.80638 
L 204.240752 244.526393 
L 218.234483 233.36846 
L 232.228213 229.0477 
L 246.221944 219.933295 
L 260.215674 206.835978 
L 274.209404 215.409229 
L 288.203135 176.557277 
L 302.196865 183.396444 
L 316.190596 170.765037 
L 330.184326 198.726644 
L 344.178056 163.726052 
L 358.171787 184.752817 
L 372.165517 176.626042 
L 386.159248 165.217962 
L 400.152978 184.962601 
L 412.208049 -1 
M 416.559424 -1 
L 428.140439 142.548302 
L 442.134169 177.538429 
L 456.1279 130.71866 
L 470.12163 159.005157 
L 484.115361 120.214495 
L 498.109091 114.229913 
" style="fill:none;stroke:#4c72b0;stroke-linecap:round;stroke-opacity:0.2;stroke-width:1.75;"/>
   </g>
   <g id="line2d_95">
    <path clip-path="url(#p25b620ae2f)" d="M 92.290909 327.811259 
L 106.284639 316.036429 
L 120.27837 302.81653 
L 134.2721 289.918035 
L 148.265831 277.606039 
L 162.259561 268.434827 
L 176.253292 258.661669 
L 190.247022 249.631477 
L 204.240752 241.741394 
L 218.234483 232.407737 
L 232.228213 223.028236 
L 246.221944 217.400436 
L 260.215674 212.912746 
L 274.209404 204.928984 
L 288.203135 192.222832 
L 302.196865 174.182877 
L 316.190596 195.209144 
L 330.184326 172.236019 
L 344.178056 136.203448 
L 358.171787 132.750727 
L 372.165517 199.777558 
L 386.159248 6.034034 
L 400.152978 140.844614 
L 414.146708 7.843361 
L 428.140439 6.917021 
L 442.134169 88.300872 
L 456.1279 184.361651 
L 470.12163 138.676012 
L 484.115361 112.69465 
L 498.109091 61.644812 
" style="fill:none;stroke:#4c72b0;stroke-linecap:round;stroke-opacity:0.2;stroke-width:1.75;"/>
   </g>
   <g id="line2d_96">
    <path clip-path="url(#p25b620ae2f)" d="M 92.290909 327.839662 
L 106.284639 316.0743 
L 120.27837 302.663054 
L 134.2721 289.789972 
L 148.265831 277.345428 
L 162.259561 268.290818 
L 176.253292 260.172515 
L 190.247022 250.954463 
L 204.240752 242.346331 
L 218.234483 233.249366 
L 232.228213 228.155743 
L 246.221944 216.265807 
L 260.215674 206.185696 
L 274.209404 195.842483 
L 288.203135 177.346085 
L 302.196865 177.22749 
L 316.190596 176.326564 
L 330.184326 163.368272 
L 344.178056 151.44495 
L 358.171787 205.521961 
L 372.165517 168.928303 
L 386.159248 177.922618 
L 400.152978 185.376688 
L 414.146708 105.329776 
L 428.140439 133.370612 
L 442.134169 164.701723 
L 456.1279 206.92318 
L 470.12163 182.846819 
L 484.115361 146.853115 
L 498.109091 107.513825 
" style="fill:none;stroke:#4c72b0;stroke-linecap:round;stroke-opacity:0.2;stroke-width:1.75;"/>
   </g>
   <g id="line2d_97">
    <path clip-path="url(#p25b620ae2f)" d="M 92.290909 327.809265 
L 106.284639 315.990088 
L 120.27837 302.818025 
L 134.2721 290.18612 
L 148.265831 277.981757 
L 162.259561 268.637635 
L 176.253292 259.883501 
L 190.247022 250.848823 
L 204.240752 240.24201 
L 218.234483 235.021321 
L 232.228213 223.631179 
L 246.221944 216.780551 
L 260.215674 215.05444 
L 274.209404 202.579997 
L 288.203135 194.537934 
L 302.196865 173.260025 
L 316.190596 193.00018 
L 330.184326 184.70797 
L 344.178056 168.960195 
L 358.171787 159.384862 
L 372.165517 138.828492 
L 386.159248 191.538168 
L 400.152978 109.886231 
L 414.146708 152.971243 
L 428.140439 135.056361 
L 432.230939 -1 
M 451.308097 -1 
L 456.1279 172.058624 
L 470.12163 136.344965 
L 484.115361 207.653688 
L 498.109091 170.829816 
" style="fill:none;stroke:#4c72b0;stroke-linecap:round;stroke-opacity:0.2;stroke-width:1.75;"/>
   </g>
   <g id="line2d_98">
    <path clip-path="url(#p25b620ae2f)" d="M 92.290909 328.277594 
L 106.284639 320.221247 
L 120.27837 312.164901 
L 134.2721 304.108555 
L 148.265831 296.052209 
L 162.259561 287.995863 
L 176.253292 279.939516 
L 190.247022 271.88317 
L 204.240752 263.826824 
L 218.234483 255.770478 
L 232.228213 247.714132 
L 246.221944 239.657785 
L 260.215674 231.601439 
L 274.209404 223.545093 
L 288.203135 215.488747 
L 302.196865 207.432401 
L 316.190596 199.376054 
L 330.184326 191.319708 
L 344.178056 183.263362 
L 358.171787 175.207016 
L 372.165517 167.15067 
L 386.159248 159.094323 
L 400.152978 151.037977 
L 414.146708 142.981631 
L 428.140439 134.925285 
L 442.134169 126.868939 
L 456.1279 118.812592 
L 470.12163 110.756246 
L 484.115361 102.6999 
L 498.109091 94.643554 
" style="fill:none;stroke:#4c72b0;stroke-linecap:round;stroke-width:1.75;"/>
   </g>
   <g id="patch_3">
    <path d="M 72 346.5 
L 72 47.52 
" style="fill:none;"/>
   </g>
   <g id="patch_4">
    <path d="M 518.4 346.5 
L 518.4 47.52 
" style="fill:none;"/>
   </g>
   <g id="patch_5">
    <path d="M 72 346.5 
L 518.4 346.5 
" style="fill:none;"/>
   </g>
   <g id="patch_6">
    <path d="M 72 47.52 
L 518.4 47.52 
" style="fill:none;"/>
   </g>
   <g id="legend_1">
    <g id="line2d_99">
     <path d="M 81 64.22 
L 101 64.22 
" style="fill:none;stroke:#4c72b0;stroke-linecap:round;stroke-width:1.75;"/>
    </g>
    <g id="line2d_100"/>
    <g id="text_18">
     <!-- $\frac{6\log(n)}{\pi^2}$ -->
     <defs>
      <path d="M 33.015625 40.375 
Q 26.375 40.375 22.484375 35.828125 
Q 18.609375 31.296875 18.609375 23.390625 
Q 18.609375 15.53125 22.484375 10.953125 
Q 26.375 6.390625 33.015625 6.390625 
Q 39.65625 6.390625 43.53125 10.953125 
Q 47.40625 15.53125 47.40625 23.390625 
Q 47.40625 31.296875 43.53125 35.828125 
Q 39.65625 40.375 33.015625 40.375 
z
M 52.59375 71.296875 
L 52.59375 62.3125 
Q 48.875 64.0625 45.09375 64.984375 
Q 41.3125 65.921875 37.59375 65.921875 
Q 27.828125 65.921875 22.671875 59.328125 
Q 17.53125 52.734375 16.796875 39.40625 
Q 19.671875 43.65625 24.015625 45.921875 
Q 28.375 48.1875 33.59375 48.1875 
Q 44.578125 48.1875 50.953125 41.515625 
Q 57.328125 34.859375 57.328125 23.390625 
Q 57.328125 12.15625 50.6875 5.359375 
Q 44.046875 -1.421875 33.015625 -1.421875 
Q 20.359375 -1.421875 13.671875 8.265625 
Q 6.984375 17.96875 6.984375 36.375 
Q 6.984375 53.65625 15.1875 63.9375 
Q 23.390625 74.21875 37.203125 74.21875 
Q 40.921875 74.21875 44.703125 73.484375 
Q 48.484375 72.75 52.59375 71.296875 
z
" id="DejaVuSans-36"/>
      <path d="M 9.421875 75.984375 
L 18.40625 75.984375 
L 18.40625 0 
L 9.421875 0 
z
" id="DejaVuSans-6c"/>
      <path d="M 30.609375 48.390625 
Q 23.390625 48.390625 19.1875 42.75 
Q 14.984375 37.109375 14.984375 27.296875 
Q 14.984375 17.484375 19.15625 11.84375 
Q 23.34375 6.203125 30.609375 6.203125 
Q 37.796875 6.203125 41.984375 11.859375 
Q 46.1875 17.53125 46.1875 27.296875 
Q 46.1875 37.015625 41.984375 42.703125 
Q 37.796875 48.390625 30.609375 48.390625 
z
M 30.609375 56 
Q 42.328125 56 49.015625 48.375 
Q 55.71875 40.765625 55.71875 27.296875 
Q 55.71875 13.875 49.015625 6.21875 
Q 42.328125 -1.421875 30.609375 -1.421875 
Q 18.84375 -1.421875 12.171875 6.21875 
Q 5.515625 13.875 5.515625 27.296875 
Q 5.515625 40.765625 12.171875 48.375 
Q 18.84375 56 30.609375 56 
z
" id="DejaVuSans-6f"/>
      <path d="M 45.40625 27.984375 
Q 45.40625 37.75 41.375 43.109375 
Q 37.359375 48.484375 30.078125 48.484375 
Q 22.859375 48.484375 18.828125 43.109375 
Q 14.796875 37.75 14.796875 27.984375 
Q 14.796875 18.265625 18.828125 12.890625 
Q 22.859375 7.515625 30.078125 7.515625 
Q 37.359375 7.515625 41.375 12.890625 
Q 45.40625 18.265625 45.40625 27.984375 
z
M 54.390625 6.78125 
Q 54.390625 -7.171875 48.1875 -13.984375 
Q 42 -20.796875 29.203125 -20.796875 
Q 24.46875 -20.796875 20.265625 -20.09375 
Q 16.0625 -19.390625 12.109375 -17.921875 
L 12.109375 -9.1875 
Q 16.0625 -11.328125 19.921875 -12.34375 
Q 23.78125 -13.375 27.78125 -13.375 
Q 36.625 -13.375 41.015625 -8.765625 
Q 45.40625 -4.15625 45.40625 5.171875 
L 45.40625 9.625 
Q 42.625 4.78125 38.28125 2.390625 
Q 33.9375 0 27.875 0 
Q 17.828125 0 11.671875 7.65625 
Q 5.515625 15.328125 5.515625 27.984375 
Q 5.515625 40.671875 11.671875 48.328125 
Q 17.828125 56 27.875 56 
Q 33.9375 56 38.28125 53.609375 
Q 42.625 51.21875 45.40625 46.390625 
L 45.40625 54.6875 
L 54.390625 54.6875 
z
" id="DejaVuSans-67"/>
      <path d="M 31 75.875 
Q 24.46875 64.65625 21.28125 53.65625 
Q 18.109375 42.671875 18.109375 31.390625 
Q 18.109375 20.125 21.3125 9.0625 
Q 24.515625 -2 31 -13.1875 
L 23.1875 -13.1875 
Q 15.875 -1.703125 12.234375 9.375 
Q 8.59375 20.453125 8.59375 31.390625 
Q 8.59375 42.28125 12.203125 53.3125 
Q 15.828125 64.359375 23.1875 75.875 
z
" id="DejaVuSans-28"/>
      <path d="M 55.71875 33.015625 
L 49.3125 0 
L 40.28125 0 
L 46.6875 32.671875 
Q 47.125 34.96875 47.359375 36.71875 
Q 47.609375 38.484375 47.609375 39.5 
Q 47.609375 43.609375 45.015625 45.890625 
Q 42.4375 48.1875 37.796875 48.1875 
Q 30.5625 48.1875 25.34375 43.375 
Q 20.125 38.578125 18.5 30.328125 
L 12.5 0 
L 3.515625 0 
L 14.109375 54.6875 
L 23.09375 54.6875 
L 21.296875 46.09375 
Q 25.046875 50.828125 30.3125 53.40625 
Q 35.59375 56 41.40625 56 
Q 48.640625 56 52.609375 52.09375 
Q 56.59375 48.1875 56.59375 41.109375 
Q 56.59375 39.359375 56.375 37.359375 
Q 56.15625 35.359375 55.71875 33.015625 
z
" id="DejaVuSans-Oblique-6e"/>
      <path d="M 8.015625 75.875 
L 15.828125 75.875 
Q 23.140625 64.359375 26.78125 53.3125 
Q 30.421875 42.28125 30.421875 31.390625 
Q 30.421875 20.453125 26.78125 9.375 
Q 23.140625 -1.703125 15.828125 -13.1875 
L 8.015625 -13.1875 
Q 14.5 -2 17.703125 9.0625 
Q 20.90625 20.125 20.90625 31.390625 
Q 20.90625 42.671875 17.703125 53.65625 
Q 14.5 64.65625 8.015625 75.875 
z
" id="DejaVuSans-29"/>
      <path d="M 9.125 54.6875 
L 61.53125 54.6875 
L 59.765625 45.703125 
L 52.875 45.703125 
L 46.34375 12.109375 
Q 45.65625 8.59375 46.578125 7.03125 
Q 47.46875 5.515625 50.140625 5.515625 
Q 50.875 5.515625 51.953125 5.671875 
Q 53.078125 5.765625 53.421875 5.8125 
L 52.15625 -0.6875 
Q 50.34375 -1.3125 48.484375 -1.609375 
Q 46.578125 -1.90625 44.78125 -1.90625 
Q 38.921875 -1.90625 37.3125 1.265625 
Q 35.6875 4.5 37.359375 13.09375 
L 43.703125 45.703125 
L 23.53125 45.703125 
L 14.65625 0 
L 5.46875 0 
L 14.359375 45.703125 
L 7.375 45.703125 
z
" id="DejaVuSans-Oblique-3c0"/>
      <path d="M 19.1875 8.296875 
L 53.609375 8.296875 
L 53.609375 0 
L 7.328125 0 
L 7.328125 8.296875 
Q 12.9375 14.109375 22.625 23.890625 
Q 32.328125 33.6875 34.8125 36.53125 
Q 39.546875 41.84375 41.421875 45.53125 
Q 43.3125 49.21875 43.3125 52.78125 
Q 43.3125 58.59375 39.234375 62.25 
Q 35.15625 65.921875 28.609375 65.921875 
Q 23.96875 65.921875 18.8125 64.3125 
Q 13.671875 62.703125 7.8125 59.421875 
L 7.8125 69.390625 
Q 13.765625 71.78125 18.9375 73 
Q 24.125 74.21875 28.421875 74.21875 
Q 39.75 74.21875 46.484375 68.546875 
Q 53.21875 62.890625 53.21875 53.421875 
Q 53.21875 48.921875 51.53125 44.890625 
Q 49.859375 40.875 45.40625 35.40625 
Q 44.1875 33.984375 37.640625 27.21875 
Q 31.109375 20.453125 19.1875 8.296875 
z
" id="DejaVuSans-32"/>
     </defs>
     <g style="fill:#262626;" transform="translate(109 67.72)scale(0.1 -0.1)">
      <use transform="translate(0 58.810938)scale(0.7)" xlink:href="#DejaVuSans-36"/>
      <use transform="translate(44.536133 58.810938)scale(0.7)" xlink:href="#DejaVuSans-6c"/>
      <use transform="translate(63.984375 58.810938)scale(0.7)" xlink:href="#DejaVuSans-6f"/>
      <use transform="translate(106.811523 58.810938)scale(0.7)" xlink:href="#DejaVuSans-67"/>
      <use transform="translate(151.245117 58.810938)scale(0.7)" xlink:href="#DejaVuSans-28"/>
      <use transform="translate(178.554688 58.810938)scale(0.7)" xlink:href="#DejaVuSans-Oblique-6e"/>
      <use transform="translate(222.919922 58.810938)scale(0.7)" xlink:href="#DejaVuSans-29"/>
      <use transform="translate(86 -50.160937)scale(0.7)" xlink:href="#DejaVuSans-Oblique-3c0"/>
      <use transform="translate(131.269857 -23.364062)scale(0.49)" xlink:href="#DejaVuSans-32"/>
      <path d="M 0 19.253125 
L 0 25.503125 
L 250.229492 25.503125 
L 250.229492 19.253125 
L 0 19.253125 
z
"/>
     </g>
    </g>
   </g>
  </g>
 </g>
 <defs>
  <clipPath id="p25b620ae2f">
   <rect height="298.98" width="446.4" x="72" y="47.52"/>
  </clipPath>
 </defs>
</svg>
